<svg width="20" height="18" viewBox="0 0 20 18" fill="none" xmlns="http://www.w3.org/2000/svg">
    <path
        d="M9.84545 6.2566L12.7273 9.08397C12.7273 9.03924 12.7273 8.98555 12.7273 8.94082C12.7273 8.22892 12.4399 7.54618 11.9285 7.04279C11.417 6.5394 10.7233 6.2566 10 6.2566C9.94545 6.2566 9.9 6.2566 9.84545 6.2566ZM5.93636 6.97239L7.34545 8.35924C7.3 8.54713 7.27273 8.73503 7.27273 8.94082C7.27273 9.65271 7.56006 10.3355 8.07153 10.8388C8.58299 11.3422 9.27668 11.625 10 11.625C10.2 11.625 10.4 11.5982 10.5909 11.5534L12 12.9403C11.3909 13.2356 10.7182 13.4145 10 13.4145C8.79447 13.4145 7.63832 12.9432 6.78588 12.1042C5.93344 11.2652 5.45455 10.1273 5.45455 8.94082C5.45455 8.23397 5.63636 7.57187 5.93636 6.97239ZM0.909091 2.0245L2.98182 4.0645L3.39091 4.46713C1.89091 5.63029 0.709091 7.15134 0 8.94082C1.57273 12.8687 5.45455 15.6513 10 15.6513C11.4091 15.6513 12.7545 15.3829 13.9818 14.8998L14.3727 15.2756L17.0273 17.8882L18.1818 16.7519L2.06364 0.888184L0.909091 2.0245ZM10 4.46713C11.2055 4.46713 12.3617 4.93846 13.2141 5.77744C14.0666 6.61642 14.5455 7.75432 14.5455 8.94082C14.5455 9.51345 14.4273 10.0682 14.2182 10.5692L16.8818 13.1908C18.2455 12.0724 19.3364 10.605 20 8.94082C18.4273 5.01292 14.5455 2.23029 10 2.23029C8.72727 2.23029 7.50909 2.45397 6.36364 2.8566L8.33636 4.78029C8.85455 4.58345 9.40909 4.46713 10 4.46713Z"
        fill="black" />
</svg>