<svg width="16" height="17" viewBox="0 0 16 17" fill="none" xmlns="http://www.w3.org/2000/svg">
    <path fill-rule="evenodd" clip-rule="evenodd"
        d="M10.6025 1.92224C9.39275 1.92224 8.17721 2.40195 7.25421 3.32379C6.01648 4.55995 5.6258 6.29713 6.04783 7.87266L5.0138 8.88078L5.58006 9.44632L0.557617 14.4378V15.5443L6.14631 9.98728L6.68795 10.5528L2.79803 14.4378L0.557629 16.6754H2.79803L3.36429 16.1098L2.79803 14.4378L4.47217 15.0033L5.0138 14.4378V13.3313H6.14631L7.79584 11.6839L8.3621 12.2248L9.34689 11.2167C10.93 11.6477 12.6828 11.2289 13.9262 9.98728C15.7722 8.14363 15.7724 5.16763 13.9262 3.32379C13.0032 2.40195 11.8123 1.92224 10.6025 1.92224ZM12.8175 4.43016C12.5098 4.12288 12.1129 3.96298 11.7096 3.96298C11.3064 3.96298 10.9094 4.12288 10.6017 4.43016C9.98637 5.04473 9.98637 6.02856 10.6017 6.64313C11.2173 7.25795 12.2022 7.25771 12.8175 6.64313C13.4329 6.02856 13.4331 5.04496 12.8175 4.43016Z"
        fill="#E2001F" />
</svg>